<svg xmlns="http://www.w3.org/2000/svg" fill="none" viewBox="0 0 372 28"><g filter="url(#a)"><path fill="#fff" fill-opacity=".8" d="M368.555 0H3.445a21 21 0 0 1 11.649 3.527l30.422 20.282A19.002 19.002 0 0 0 56.055 27h259.89a19 19 0 0 0 10.539-3.191l30.422-20.282A21.002 21.002 0 0 1 368.555 0Z"/></g><path fill="#000" d="M368.555 0H372v1h-3.445a20.003 20.003 0 0 0-11.094 3.359l-30.422 20.282A20.003 20.003 0 0 1 315.945 28H186v-1h129.945a19 19 0 0 0 10.539-3.191l30.422-20.282A21.002 21.002 0 0 1 368.555 0ZM3.445 0H0v1h3.445a20 20 0 0 1 11.094 3.359l30.423 20.282A20 20 0 0 0 56.055 28H186v-1H56.055a19 19 0 0 1-10.54-3.191L15.095 3.527A21 21 0 0 0 3.445 0Z"/><defs><filter id="a" width="397.109" height="59" x="-12.555" y="-16" color-interpolation-filters="sRGB" filterUnits="userSpaceOnUse"><feFlood flood-opacity="0" result="BackgroundImageFix"/><feGaussianBlur in="BackgroundImageFix" stdDeviation="8"/><feComposite in2="SourceAlpha" operator="in" result="effect1_backgroundBlur_2101_141"/><feBlend in="SourceGraphic" in2="effect1_backgroundBlur_2101_141" result="shape"/></filter></defs></svg>