<svg xmlns="http://www.w3.org/2000/svg" viewBox="0 0 51 46" fill="none"><path fill="#008AC1" fill-rule="evenodd" d="M15.044 45.14c4.133 0 7.578-2.854 7.578-6.298V28.509c0-2.559-1.87-4.823-4.626-5.807 2.756-.984 4.626-3.247 4.626-5.806V7.153c0-3.346-3.445-6.298-7.578-6.298H.184V45.14h14.86Zm0-19.977v13.58H7.86v-13.58h7.184Zm0-18.01v13.09H7.86V7.152h7.184ZM35.422 45.14V27.918h7.184c4.133 0 7.578-2.165 7.578-4.92V7.153c0-3.444-3.543-6.298-7.578-6.298h-14.86V45.14h7.676Zm7.184-37.987v15.845h-7.184V7.153h7.184Z" clip-rule="evenodd"/></svg>