<svg xmlns="http://www.w3.org/2000/svg" viewBox="0 0 186 51" fill="none"><path fill="#008AC1" d="M12.93 32.819c2.965 0 5.435-2.047 5.435-4.517v-7.41c0-1.836-1.34-3.46-3.317-4.165 1.976-.706 3.317-2.329 3.317-4.164V5.576c0-2.4-2.47-4.517-5.434-4.517H2.273v31.76h10.658Zm0-14.328v9.74H7.78v-9.74h5.152Zm0-12.915v9.387H7.78V5.576h5.152Zm15.246-4.517c-2.965 0-5.435 2.117-5.435 4.517V28.23c0 2.47 2.54 4.517 5.435 4.517h5.152c2.964 0 5.434-2.046 5.434-4.517V5.576c0-2.4-2.47-4.517-5.434-4.517h-5.152Zm0 27.172V5.576h5.152V28.23h-5.152Zm42.84 4.588V20.468h5.153c2.964 0 5.434-1.553 5.434-3.53V5.577c0-2.47-2.54-4.517-5.434-4.517H65.512v31.76h5.505ZM76.17 5.576v11.363h-5.152V5.576h5.152Zm14.75 22.655v-9.74h10.093v-3.528H90.92V5.576h10.657V1.059H90.92c-2.965 0-5.435 2.046-5.435 4.517V28.23c0 2.47 2.54 4.517 5.435 4.517h10.657v-4.517H90.92Zm19.339-22.655h5.717v7.693h5.434V5.576c0-2.47-2.47-4.517-5.434-4.517h-5.717c-2.964 0-5.434 2.117-5.434 4.517V28.23c0 2.4 2.47 4.517 5.434 4.517h5.717c2.964 0 5.434-2.117 5.434-4.517V20.61h-5.434v7.622h-5.717V5.576Zm26.185-4.517v18.068h-5.153V1.059h-5.434v18.068c0 2.47 2.541 4.587 5.434 4.587h5.153v4.517h-10.658v4.517h10.658c2.964 0 5.434-2.117 5.434-4.517V1.06h-5.434Zm15.244 31.76V20.468h5.153c2.964 0 5.434-1.553 5.434-3.53V5.577c0-2.47-2.541-4.517-5.434-4.517h-10.658v31.76h5.505Zm5.223-27.243v11.363h-5.152V5.576h5.152Zm14.681 0h5.716v7.693h5.435V5.576c0-2.47-2.47-4.517-5.435-4.517h-5.716c-2.965 0-5.435 2.117-5.435 4.517V28.23c0 2.4 2.47 4.517 5.435 4.517h5.716c2.965 0 5.435-2.117 5.435-4.517V20.61h-5.435v7.622h-5.716V5.576ZM44.409 31.125V5.575c0-2.399 2.47-4.516 5.434-4.516H60.5v30.066h-5.434V5.575h-5.152v25.55h-5.505Z"/><path fill="#008AC1" d="M62.83 32.819H45.184c-2.823 0-5.364-1.976-5.434-4.376H62.83v4.376Z"/><path fill="#717171" d="M3.188 48.558V41.64c0-.988.282-1.694.846-2.188.565-.494 1.483-.776 2.824-.776 1.129 0 1.976.212 2.611.706.635.494.918 1.129.918 2.117v7.058c0 1.905-1.2 2.823-3.6 2.823-2.4-.07-3.6-.988-3.6-2.823Zm4.728-.424V41.36c0-.141-.07-.282-.14-.494a.723.723 0 0 0-.354-.424 1.685 1.685 0 0 0-.635-.14c-.212 0-.423.07-.565.14-.14.07-.282.141-.353.283-.14.14-.211.211-.211.423-.07.141-.07.282-.07.424v6.563c0 .283 0 .565.07.706 0 .212.14.353.353.494.211.141.494.282.847.282.282 0 .494-.07.705-.14.212-.071.283-.212.353-.354.07-.14.141-.282.141-.423-.14-.212-.14-.353-.14-.565ZM18.997 51.1h-2.4v-5.505c-.635.211-1.2.352-1.905.352-1.624 0-2.4-.705-2.4-2.046v-4.94h2.4v4.163c0 .635.282.988.917.988.353 0 .635-.07.988-.211v-4.94h2.4v12.139Zm9.81 0h-2.4v-6.776l-2.399 5.293v1.412h-2.4V38.959h2.4v6.634l2.4-5.364v-1.34h2.4v12.21Zm7.129-4.588h2.329v2.047c0 1.835-1.2 2.823-3.529 2.823h-.776c-.212 0-.565-.07-.918-.212-.353-.07-.706-.212-.917-.423-.283-.142-.494-.424-.706-.777-.212-.353-.282-.706-.282-1.2v-7.128c0-.988.282-1.694.846-2.188.565-.494 1.482-.706 2.753-.706 1.059 0 1.906.212 2.54.636.636.423.918.988.918 1.835v2.258h-2.329v-1.553c0-.494-.07-.846-.212-1.058-.14-.212-.494-.353-.988-.353-.423 0-.705.141-.847.353-.14.212-.211.564-.211.988v6.493c0 .424.07.776.282.988.141.212.494.353.917.353.495 0 .777-.141.918-.353.141-.212.212-.635.212-1.13v-1.693Zm10.798-5.787h-2.4v10.375h-2.4V40.724h-2.399v-1.765h7.2v1.765Zm8.61 10.375h-2.399v-5.576h-2.117v5.576h-2.4v-12.14h2.4v4.729h2.188v-4.729h2.4V51.1h-.071Zm2.542-12.14h2.4v4.87h2.399c.423 0 .776.07 1.059.141.282.141.494.282.635.424.14.14.282.352.353.635.07.282.14.494.14.706v2.54c0 1.06-.14 1.836-.493 2.188-.353.353-.988.565-2.118.565h-4.375V38.959Zm2.4 6.634v3.741h1.2c.423 0 .705-.07.846-.212.141-.14.141-.423.141-.846v-1.412c0-.424-.07-.776-.212-.918-.14-.211-.423-.282-.847-.282h-1.129v-.07Zm8.116 5.506h-2.4v-12.14h2.4V51.1Zm9.034 0h-6.493v-12.14h6.281v1.835h-3.882v2.823h3.67v1.835h-3.67v3.741h4.094v1.906Zm14.962-4.588h2.33v2.047c0 1.835-1.2 2.823-3.53 2.823h-.776c-.212 0-.564-.07-.917-.212-.353-.07-.706-.212-.918-.423-.282-.142-.494-.424-.706-.777-.211-.353-.282-.706-.282-1.2v-7.128c0-.988.282-1.694.847-2.188.565-.494 1.482-.706 2.752-.706 1.06 0 1.906.212 2.541.636.635.423.918.988.918 1.835v2.258h-2.33v-1.553c0-.494-.07-.846-.211-1.058-.141-.212-.494-.353-.988-.353-.424 0-.706.141-.847.353-.141.212-.212.564-.212.988v6.493c0 .424.07.776.283.988.14.212.494.353.917.353.494 0 .776-.141.918-.353.14-.212.211-.635.211-1.13v-1.693Zm4.376 2.047V41.64c0-.988.282-1.694.847-2.188.565-.494 1.482-.776 2.823-.776 1.13 0 1.976.212 2.612.706.635.494.917 1.129.917 2.117v7.058c0 1.905-1.2 2.823-3.599 2.823-2.4-.07-3.6-.988-3.6-2.823Zm4.729-.424V41.36c0-.141-.071-.282-.141-.494a.725.725 0 0 0-.353-.424 1.687 1.687 0 0 0-.635-.14c-.212 0-.424.07-.565.14-.141.07-.282.141-.353.283-.07.07-.141.211-.212.423-.07.141-.07.282-.07.424v6.563c0 .283 0 .565.07.706 0 .212.142.353.353.494.212.141.494.282.847.282.283 0 .494-.07.706-.14a.855.855 0 0 0 .353-.354c.071-.14.141-.282.141-.423-.141-.212-.141-.353-.141-.565Zm4.729.424V41.64c0-.988.282-1.694.847-2.188.564-.494 1.482-.776 2.823-.776 1.129 0 1.976.212 2.611.706.635.494.918 1.129.918 2.117v7.058c0 1.905-1.2 2.823-3.6 2.823-2.4-.07-3.599-.988-3.599-2.823Zm4.799-.424V41.36c0-.141-.071-.282-.141-.494a.725.725 0 0 0-.353-.424 1.687 1.687 0 0 0-.635-.14c-.212 0-.424.07-.565.14-.141.07-.282.141-.353.283-.07.07-.141.211-.212.423-.07.141-.07.282-.07.424v6.563c0 .283 0 .565.07.706 0 .212.142.353.353.494.212.141.494.282.847.282.283 0 .494-.07.706-.14a.855.855 0 0 0 .353-.354c.071-.14.141-.282.141-.423-.141-.212-.141-.353-.141-.565Zm4.799-9.175h4.8c.423 0 .776.07 1.058.141.283.141.494.283.635.424.142.14.283.353.353.635.071.282.142.494.142.706v2.399c0 1.06-.142 1.835-.495 2.188-.352.353-.988.565-2.117.565h-2.047v5.082h-2.399v-12.14h.07Zm2.471 1.765v3.529h1.199c.424 0 .706-.071.847-.212.141-.141.141-.424.141-.847v-1.27c0-.424-.07-.777-.211-.918-.141-.212-.424-.282-.847-.282h-1.129Zm9.88 4.446.989-6.21h2.47l-2.47 9.316a6.571 6.571 0 0 1-.565 1.552c-.212.424-.424.706-.706.847-.282.141-.494.282-.776.353-.212.07-.494.07-.918.07h-.564v-1.905h.353c.423 0 .705-.07.846-.212.142-.14.283-.353.353-.635l-3.246-9.387h2.541l1.693 6.211Zm9.529-6.21h2.399v4.869h.706c.423 0 .635-.07.776-.282.071-.212.141-.636.141-1.27v-1.342c0-1.34.706-2.046 2.188-2.046h.918v1.835c-.282 0-.494.07-.565.211-.07.142-.141.494-.141.988v.777c0 .564-.07 1.058-.212 1.34-.141.283-.423.495-.847.636.424.07.777.212.989.423.211.212.282.636.282 1.2v1.694c0 .424.07.776.141.918.071.14.282.211.565.211v1.906h-.918c-.635 0-1.2-.141-1.553-.494-.352-.353-.564-.847-.564-1.553v-1.905c0-.565-.071-.918-.212-1.13-.141-.211-.423-.282-.917-.282h-.706V51.1h-2.4v-5.435h-.706c-.423 0-.705.07-.917.282-.141.212-.212.565-.212 1.13v1.905c0 .706-.212 1.2-.565 1.553-.352.353-.917.494-1.552.494h-.918v-1.906c.283 0 .494-.07.565-.211.07-.142.141-.494.141-.918V46.37c0-.565.071-.988.282-1.2.212-.212.494-.424.988-.424-.423-.14-.635-.352-.847-.635-.141-.282-.211-.705-.211-1.34v-.777c0-.494-.071-.847-.141-.988-.071-.141-.283-.212-.565-.212V38.96h.917c1.412 0 2.188.706 2.188 2.047v1.34c0 .636.071 1.06.142 1.271.07.212.352.283.776.283h.706v-4.94h-.141Zm15.809 12.139h-6.493v-12.14h6.281v1.835h-3.881v2.823h3.67v1.835h-3.67v3.741h4.093v1.906Zm8.893 0h-2.4v-5.576h-2.188v5.576h-2.399v-12.14h2.399v4.729h2.188v-4.729h2.4V51.1Zm9.669 0h-2.4v-6.776l-2.399 5.364v1.412h-2.4v-12.14h2.4v6.634l2.399-5.364v-1.34h2.4v12.21Zm4.094-6.14c-.918-.142-1.341-.848-1.341-2.048v-1.834c0-1.412.776-2.188 2.329-2.188h4.799v12.139h-2.4v-5.364h-1.129c-.423 0-.706.07-.917.282-.142.212-.212.565-.212 1.13v1.905c0 .706-.212 1.2-.565 1.553s-.917.494-1.552.494h-.918v-1.906c.282 0 .494-.07.565-.211.07-.142.141-.494.141-.918v-1.34c-.071-.989.353-1.554 1.2-1.695Zm3.317-1.06v-3.246h-1.271c-.423 0-.705.07-.847.212-.141.14-.211.423-.211.776V42.7c0 .423.07.706.211.917.142.141.424.283.847.283h1.271Z"/></svg>